<svg id="Capa_1" data-name="Capa 1" xmlns="http://www.w3.org/2000/svg" viewBox="0 0 1109.26 234.32"><defs><style>.cls-1,.cls-2{fill:#cd8978;}.cls-2{stroke:#cd8978;stroke-miterlimit:10;stroke-width:2px;}</style></defs><title>logo-horizontal-1</title><path class="cls-1" d="M789.6,117.09" transform="translate(1.51 0.98)"/><path class="cls-1" d="M402.35,91.65v59.65h-6.74l-34-48.21v42.11a5.38,5.38,0,0,0,.48,2.44,4.2,4.2,0,0,0,2.53,2.19,8.32,8.32,0,0,0,1.64.3v1.17H349.73v-1.14a6.22,6.22,0,0,0,1.59-.18,4.3,4.3,0,0,0,1.37-.68,3.77,3.77,0,0,0,1.16-1.39,5.56,5.56,0,0,0,.52-2.41V91.87a5.4,5.4,0,0,0-.5-2.32,3.25,3.25,0,0,0-1.14-1.25,4.28,4.28,0,0,0-1.37-.59,7.11,7.11,0,0,0-1.64-.16V86.09h11.34L395,134.29V92.18a6.26,6.26,0,0,0-.5-2.46,3.82,3.82,0,0,0-1.16-1.48A4.55,4.55,0,0,0,392,87.5a6.74,6.74,0,0,0-1.64-.25V86.11H407v1.18a7.69,7.69,0,0,0-1.57.3,4.84,4.84,0,0,0-1.43.7,4,4,0,0,0-1.16,1.3,4.53,4.53,0,0,0-.52,2.14h0Z" transform="translate(1.51 0.98)"/><path class="cls-1" d="M430.67,151.78a38.71,38.71,0,0,1-6.76-.61,16.14,16.14,0,0,1-6.26-2.57,14.48,14.48,0,0,1-4.48-5.14,12.16,12.16,0,0,1-1.16-5,10.94,10.94,0,0,1,.5-3,13.62,13.62,0,0,1,1.89-3.76,24,24,0,0,1,4-4.37,20.69,20.69,0,0,1,7.67-3.71A45.8,45.8,0,0,1,438,122.06c1.64,0,3.29.08,5,.23h.45a28.41,28.41,0,0,0-1.07-4.19,21.39,21.39,0,0,0-2-4.35,12.1,12.1,0,0,0-3-3.42,6.63,6.63,0,0,0-4.1-1.34,9.32,9.32,0,0,0-3.14.64,8.45,8.45,0,0,0-3.23,2.14,7.93,7.93,0,0,0-2,4.1,6.51,6.51,0,0,0-.11.89,3.17,3.17,0,0,1-.07.8A4.23,4.23,0,0,1,424,120c-.46.64-1.49,1-3.1,1a7.1,7.1,0,0,1-3.64-1.18,5.1,5.1,0,0,1-2.23-4,7.18,7.18,0,0,1,1.82-4.5,15.57,15.57,0,0,1,5.76-4.14,19.66,19.66,0,0,1,4.69-1.3,30.72,30.72,0,0,1,4.42-.34q1.32,0,2.28.09a2.31,2.31,0,0,0,.46,0q11.43.73,15.52,7a27.57,27.57,0,0,1,4.55,15.84v17a5.36,5.36,0,0,0,.61,2.5,3.08,3.08,0,0,0,1.09,1.12,3.4,3.4,0,0,0,.8.34l1.68.46-1.5.46a16.14,16.14,0,0,1-2,.57,16.6,16.6,0,0,1-3.85.39,15.86,15.86,0,0,1-3.19-.3,4.54,4.54,0,0,1-2.23-1h-.05a5.91,5.91,0,0,1-1.09-1.46A38.55,38.55,0,0,1,430.67,151.78Zm3.18-4.49h0a28.86,28.86,0,0,0,5.81-1.39,20.28,20.28,0,0,0,4.26-2.25V127.79a19.16,19.16,0,0,0-.09-2c-1.24-.18-2.27-.31-3.07-.39s-1.77-.11-2.89-.11A17.57,17.57,0,0,0,427.67,128a12.42,12.42,0,0,0-5.05,8.31h0c0,.39-.05.87-.05,1.41V138q0,5.1,2.69,6.83A15.16,15.16,0,0,0,433.85,147.29Zm9.56-25Z" transform="translate(1.51 0.98)"/><path class="cls-1" d="M480.88,151.51H480a17,17,0,0,1-8.06-2.44,12.68,12.68,0,0,1-4.71-5.87,33.43,33.43,0,0,1-2.19-9.63q-.57-5.77-.57-13.75V108.94h-6.69v-3.32a10.94,10.94,0,0,0,5.42-1.23,11.55,11.55,0,0,0,3.57-3,15.65,15.65,0,0,0,2.12-3.62,17.07,17.07,0,0,0,1-3,3.24,3.24,0,0,1,.18-.73,2.45,2.45,0,0,0,.18-.64l4.83.09.09,12.2h20V109h-20v5.28c0,1.82.05,3.64.05,5.46l-.09,7.83c0,1.55.05,3.13.14,4.74.06,1.18.11,2.41.14,3.69a18,18,0,0,0,.8,5.21,11.29,11.29,0,0,0,1.68,3.32,8.19,8.19,0,0,0,2,1.89,7.92,7.92,0,0,0,2.3,1,8.9,8.9,0,0,0,4.51-1.68q1.68-1,8.24-8l-.27,7.1a15.7,15.7,0,0,1-6.83,5.19h0A15.7,15.7,0,0,1,480.88,151.51Z" transform="translate(1.51 0.98)"/><path class="cls-1" d="M501.19,110.29a2.9,2.9,0,0,0-.27-1.34,2.32,2.32,0,0,0-.68-.82,2.52,2.52,0,0,0-.84-.41,5.27,5.27,0,0,0-1-.16,33.2,33.2,0,0,1,9.61-2,5.43,5.43,0,0,1,2.71.5,2.07,2.07,0,0,1,1,1.5,16.59,16.59,0,0,1,.16,2.59V123.9h0v4.28a64.19,64.19,0,0,0,.73,10.36,12.2,12.2,0,0,0,3,6.72,9.21,9.21,0,0,0,6.6,2.46,8.27,8.27,0,0,0,4.6-1.37,11.3,11.3,0,0,0,3.44-3.51,11.14,11.14,0,0,0,1.66-4.51h0v-28a2.5,2.5,0,0,0-.36-1.41,2.42,2.42,0,0,0-.87-.82,4.78,4.78,0,0,0-.91-.39,2.28,2.28,0,0,0-.55-.11,32.71,32.71,0,0,1,9.52-2,5.43,5.43,0,0,1,2.71.5,2.07,2.07,0,0,1,1,1.5,16.59,16.59,0,0,1,.16,2.59v35.24a4.58,4.58,0,0,0,.43,2.14,4,4,0,0,0,2.28,2,6.76,6.76,0,0,0,1.48.3l-2.46.77a16.3,16.3,0,0,1-4.83.68h-.18a12.81,12.81,0,0,1-3.85-.52,4.73,4.73,0,0,1-2.71-2.53,22.5,22.5,0,0,1-5.49,2.25,27.86,27.86,0,0,1-6.26.57q-13.15,0-17.12-9a32.26,32.26,0,0,1-2.55-13V110.29Z" transform="translate(1.51 0.98)"/><path class="cls-1" d="M569.3,151.29H549.4v-1.18a7.67,7.67,0,0,0,1.59-.23,4.45,4.45,0,0,0,1.37-.64,3.59,3.59,0,0,0,1.16-1.34,5.26,5.26,0,0,0,.52-2.34V110.29a3,3,0,0,0-.41-1.52,2.17,2.17,0,0,0-.89-.82,3.68,3.68,0,0,0-.93-.32,3.75,3.75,0,0,0-.5-.07h0a.45.45,0,0,0,.23-.09c.79-.24,2.17-.62,4.14-1.12a21.63,21.63,0,0,1,5.24-.75c1.61,0,2.64.27,3.1.8a4.24,4.24,0,0,1,.68,2.75,32,32,0,0,1,6.24-2.6,23.37,23.37,0,0,1,6.69-1,32.8,32.8,0,0,1,5.83.73q5.73,1.09,6.42,5a.46.46,0,0,0,0,.14s0,.07,0,.11a.23.23,0,0,1,0,.09h0c-.24,2.13-1.18,3.43-2.82,3.92a7.62,7.62,0,0,1-4.92-.18c-1.64-.61-2.6-1.47-2.87-2.59-.21-1.61-.82-2.58-1.82-2.91a3.92,3.92,0,0,0-1.41-.36,18.65,18.65,0,0,0-6,1.59,14.72,14.72,0,0,0-5.33,5h0v29.2a5.56,5.56,0,0,0,.48,2.5,4.06,4.06,0,0,0,1.16,1.46,4.85,4.85,0,0,0,1.34.71,5.4,5.4,0,0,0,1.62.21v1.12Z" transform="translate(1.51 0.98)"/><path class="cls-1" d="M610.78,151.78a38.71,38.71,0,0,1-6.76-.61,16.14,16.14,0,0,1-6.26-2.57,14.48,14.48,0,0,1-4.48-5.14,12.16,12.16,0,0,1-1.16-5,10.94,10.94,0,0,1,.5-3,13.62,13.62,0,0,1,1.89-3.76,24,24,0,0,1,4-4.37,20.69,20.69,0,0,1,7.67-3.71,45.8,45.8,0,0,1,11.91-1.53c1.64,0,3.29.08,5,.23h.5a28.4,28.4,0,0,0-1.07-4.19,21.39,21.39,0,0,0-2-4.35,12.1,12.1,0,0,0-3-3.42,6.63,6.63,0,0,0-4.1-1.34,9.32,9.32,0,0,0-3.14.64,8.45,8.45,0,0,0-3.23,2.14,7.93,7.93,0,0,0-2,4.1,6.51,6.51,0,0,0-.11.89,3.17,3.17,0,0,1-.07.8,4.22,4.22,0,0,1-.73,2.41c-.46.64-1.49,1-3.1,1a7.1,7.1,0,0,1-3.64-1.18,5.11,5.11,0,0,1-2.23-4,7.18,7.18,0,0,1,1.83-4.53,15.57,15.57,0,0,1,5.76-4.14,19.66,19.66,0,0,1,4.69-1.3,30.72,30.72,0,0,1,4.42-.34q1.32,0,2.28.09a2.31,2.31,0,0,0,.46,0q11.43.73,15.52,7a27.57,27.57,0,0,1,4.55,15.84v17a5.36,5.36,0,0,0,.61,2.5,3.08,3.08,0,0,0,1.09,1.12,3.4,3.4,0,0,0,.8.34l1.68.46-1.5.46a16.14,16.14,0,0,1-2,.57,16.6,16.6,0,0,1-3.85.39,15.86,15.86,0,0,1-3.19-.3,4.54,4.54,0,0,1-2.23-1h0a5.91,5.91,0,0,1-1.09-1.46A38.5,38.5,0,0,1,610.78,151.78Zm3.22-4.49h0a28.86,28.86,0,0,0,5.81-1.39,20.28,20.28,0,0,0,4.26-2.25V127.79a19.16,19.16,0,0,0-.09-2c-1.24-.18-2.27-.31-3.07-.39s-1.77-.11-2.89-.11A17.57,17.57,0,0,0,607.87,128a12.42,12.42,0,0,0-5,8.31h0V138q0,5.1,2.69,6.83A15.12,15.12,0,0,0,614,147.29Zm9.56-25Z" transform="translate(1.51 0.98)"/><path class="cls-1" d="M641.1,150a8.53,8.53,0,0,0,1.59-.21,3.89,3.89,0,0,0,2.53-2.07,5.47,5.47,0,0,0,.52-2.37V87.22A2.35,2.35,0,0,0,645.4,86a2.42,2.42,0,0,0-.73-.73,3.57,3.57,0,0,0-.89-.41,5,5,0,0,0-1-.18c.24-.09.93-.3,2-.62s2.42-.62,3.89-.91a20.38,20.38,0,0,1,3.89-.43q3.82,0,3.82,3.92v58.46a5.38,5.38,0,0,0,.48,2.44A4,4,0,0,0,658,149a5.24,5.24,0,0,0,1.34.73A5.93,5.93,0,0,0,661,150v1.14h-19.9V150Z" transform="translate(1.51 0.98)"/><path class="cls-1" d="M685.49,141l-.09-.18a18.91,18.91,0,0,1-1.62-3.92,6.15,6.15,0,0,1,.39-4.6,6.35,6.35,0,0,1,2.32-2.41A7.2,7.2,0,0,1,689,129a8.61,8.61,0,0,1,1.73-.11h.09q3.55,0,3.51,2.37V132a5.39,5.39,0,0,1-.09.73v.18a9.89,9.89,0,0,0-.09,1.46,12.84,12.84,0,0,0,2.16,7.69,11.85,11.85,0,0,0,5.62,4.28,20.8,20.8,0,0,0,7.56,1.55q15.71,0,15.75-11.29,0-8.88-20.4-18.21a89,89,0,0,1-8.58-4.26,24.79,24.79,0,0,1-6.53-5.08,11.58,11.58,0,0,1-3.19-7.74,12,12,0,0,1,1.57-5.55,15.39,15.39,0,0,1,5.21-5.46q6.55-4.18,18.48-4.23,9.84.09,14.71,2.28,8.32,4.05,9.7,9.29a8,8,0,0,1,.32,2h0a11.21,11.21,0,0,1-.09,1.3,5,5,0,0,1-.55,1.66,6.48,6.48,0,0,1-2,2.53,7.44,7.44,0,0,1-4.3.93,5.85,5.85,0,0,1-2.85-.61,2,2,0,0,1-1.07-1.8,8.73,8.73,0,0,1,.09-1.09v-.29a8.47,8.47,0,0,0,.09-1.28v-.41a12.19,12.19,0,0,0-2-6.51A9.79,9.79,0,0,0,719,90.54a21.71,21.71,0,0,0-7.24-1.09,18.35,18.35,0,0,0-11,3.42Q697,95.64,697,101.21a8.27,8.27,0,0,0,1,4.14,8.37,8.37,0,0,0,2.32,2.78,38.5,38.5,0,0,0,3.55,2.21q1.63.89,3.69,1.8,2.82,1.23,5.74,2.78l1.46.77h-.09q6.46,3.24,11.18,6.21a25.15,25.15,0,0,1,7,6.17,15,15,0,0,1,3,9,10.93,10.93,0,0,1-2.59,7q-2.6,3.24-8.4,5.24t-15.46,2a38.68,38.68,0,0,1-11.86-1.59,25.11,25.11,0,0,1-7.85-3.94A16.71,16.71,0,0,1,685.49,141Z" transform="translate(1.51 0.98)"/><path class="cls-1" d="M760.07,151.15h-19.9V150a6.47,6.47,0,0,0,1.59-.25,4.61,4.61,0,0,0,1.37-.71,3.89,3.89,0,0,0,1.14-1.37,5.31,5.31,0,0,0,.5-2.28V85.29q0-1.77.18-1.59H745c-.36-.36-.52-.56-.46-.59a.49.49,0,0,1-.18.09l-.32.09-.32.09L742,82.53l.46-.14c.88-.27,2.25-.64,4.12-1.12a20.85,20.85,0,0,1,5-.71c2.28,0,3.47.64,3.6,1.91a22.06,22.06,0,0,1,.23,3.42v13h0v27.73L774.52,105h7.56l-13,14.75,17.39,31.19H775.68l-13.57-23.31-6.69,8v9.47a5.16,5.16,0,0,0,.48,2.41,4.21,4.21,0,0,0,1.16,1.43,4.56,4.56,0,0,0,1.34.73,7.83,7.83,0,0,0,1.62.3Z" transform="translate(1.51 0.98)"/><path class="cls-1" d="M808.83,151.15h-19.9V150a8.53,8.53,0,0,0,1.59-.21,4.12,4.12,0,0,0,1.37-.64,3.64,3.64,0,0,0,1.14-1.39,5.79,5.79,0,0,0,.5-2.37V110a2.43,2.43,0,0,0-1.2-2.23,3.18,3.18,0,0,0-.91-.36,3.67,3.67,0,0,0-.57-.09h0l.5-.14c.91-.3,2.29-.69,4.14-1.16a20.46,20.46,0,0,1,5-.71c2.28,0,3.47.67,3.6,2a21.33,21.33,0,0,1,.23,3.32v13.07h0v21.44a5.44,5.44,0,0,0,.48,2.48A4,4,0,0,0,806,149a4.72,4.72,0,0,0,1.34.71,6.42,6.42,0,0,0,1.62.25ZM793.57,95.56A5,5,0,1,1,798,100,5,5,0,0,1,793.57,95.56Z" transform="translate(1.51 0.98)"/><path class="cls-1" d="M879.58,141l-.09-.18a18.91,18.91,0,0,1-1.62-3.92,6.15,6.15,0,0,1,.39-4.6,6.35,6.35,0,0,1,2.32-2.41,7.2,7.2,0,0,1,2.5-.89,8.61,8.61,0,0,1,1.73-.11h.09q3.55,0,3.51,2.37V132a5.39,5.39,0,0,1-.09.73v.18a9.9,9.9,0,0,0-.09,1.46,12.84,12.84,0,0,0,2.16,7.69,11.85,11.85,0,0,0,5.62,4.28,20.8,20.8,0,0,0,7.56,1.55q15.7,0,15.75-11.29,0-8.88-20.4-18.21a89,89,0,0,1-8.58-4.26,24.79,24.79,0,0,1-6.53-5.08,11.58,11.58,0,0,1-3.19-7.74,12.05,12.05,0,0,1,1.57-5.55,15.39,15.39,0,0,1,5.21-5.46q6.55-4.18,18.48-4.23,9.84.09,14.71,2.28,8.32,4.05,9.7,9.29a8,8,0,0,1,.32,2h0a11.21,11.21,0,0,1-.09,1.3,5,5,0,0,1-.55,1.66,6.48,6.48,0,0,1-2,2.53,7.44,7.44,0,0,1-4.3.93,5.85,5.85,0,0,1-2.85-.61,2,2,0,0,1-1.07-1.8,8.74,8.74,0,0,1,.09-1.09v-.29a8.47,8.47,0,0,0,.09-1.28v-.41a12.19,12.19,0,0,0-2-6.51,9.79,9.79,0,0,0-4.85-3.55,21.71,21.71,0,0,0-7.24-1.09,18.35,18.35,0,0,0-11,3.42q-3.78,2.77-3.78,8.33a8.27,8.27,0,0,0,1,4.14,8.37,8.37,0,0,0,2.32,2.78,38.51,38.51,0,0,0,3.55,2.21q1.63.89,3.69,1.8,2.82,1.23,5.74,2.78l1.46.77h-.09q6.46,3.24,11.18,6.21a25.15,25.15,0,0,1,7,6.17,15,15,0,0,1,3,9,10.93,10.93,0,0,1-2.59,7q-2.52,3.23-8.32,5.23t-15.46,2a38.68,38.68,0,0,1-11.86-1.59,25.11,25.11,0,0,1-7.85-3.94A16.61,16.61,0,0,1,879.58,141Z" transform="translate(1.51 0.98)"/><path class="cls-1" d="M954.2,151.1H934.26V150a7.11,7.11,0,0,0,1.64-.16,4,4,0,0,0,1.37-.64,3.64,3.64,0,0,0,1.14-1.39,5.88,5.88,0,0,0,.5-2.41V85.29a2.9,2.9,0,0,0-.27-1.34,2.32,2.32,0,0,0-.68-.82,2.62,2.62,0,0,0-.82-.41,4.79,4.79,0,0,0-1-.16l.46-.14c.88-.27,2.25-.64,4.12-1.12a20.85,20.85,0,0,1,5-.71c2.28,0,3.48.64,3.6,1.91a26.9,26.9,0,0,1,.18,3.42v21.37a25.14,25.14,0,0,1,10.7-2q7.61,0,11.25,2.6a19.89,19.89,0,0,1,5.19,5.46,19.64,19.64,0,0,1,2.57,6.49,37.25,37.25,0,0,1,.79,7.45v17.94c.06,1.85.54,3,1.43,3.6a5.17,5.17,0,0,0,2.75.82l-2.5.73a16.3,16.3,0,0,1-4.83.68,8.92,8.92,0,0,1-5.37-1.48q-2-1.48-2.14-5.17V128.29a63.7,63.7,0,0,0-.75-10.43,11.85,11.85,0,0,0-3-6.65,9.06,9.06,0,0,0-6.56-2.5,9.65,9.65,0,0,0-6.24,2.64,11.74,11.74,0,0,0-3.37,5.65l.14-.14V145.1a6.65,6.65,0,0,0,.5,2.57,3.66,3.66,0,0,0,1.14,1.48,4.17,4.17,0,0,0,1.37.68,6.52,6.52,0,0,0,1.64.18v1.11Z" transform="translate(1.51 0.98)"/><path class="cls-1" d="M1006.38,151.15h-19.9V150a8.53,8.53,0,0,0,1.59-.21,4.12,4.12,0,0,0,1.37-.64,3.64,3.64,0,0,0,1.14-1.39,5.79,5.79,0,0,0,.5-2.37V110a2.43,2.43,0,0,0-1.2-2.23,3.18,3.18,0,0,0-.91-.36,3.67,3.67,0,0,0-.57-.09h0l.5-.14c.91-.3,2.29-.69,4.14-1.16a20.46,20.46,0,0,1,5-.71c2.28,0,3.47.67,3.6,2a21.32,21.32,0,0,1,.23,3.32v13.07h0v21.44a5.44,5.44,0,0,0,.48,2.48,4,4,0,0,0,1.16,1.43,4.72,4.72,0,0,0,1.34.71,6.42,6.42,0,0,0,1.62.25ZM991.13,95.56a4.9,4.9,0,1,1,1.46,3.5A4.71,4.71,0,0,1,991.13,95.56Z" transform="translate(1.51 0.98)"/><path class="cls-1" d="M1031.11,151.29h-19.94v-1.18a8.32,8.32,0,0,0,1.64-.3,4.86,4.86,0,0,0,1.37-.68,3.64,3.64,0,0,0,1.14-1.37,5.35,5.35,0,0,0,.5-2.25V110.29a2.51,2.51,0,0,0-.61-1.68,3.06,3.06,0,0,0-1.18-.8,6.26,6.26,0,0,0-.89-.25h0a1.39,1.39,0,0,1,.27-.09c.76-.24,2.12-.62,4.1-1.12a21.46,21.46,0,0,1,5.19-.75c2.34,0,3.55.64,3.64,1.91a.29.29,0,0,0,0,.09.29.29,0,0,1,0,.09h0a21,21,0,0,1,4.58-1.5,29.46,29.46,0,0,1,6.26-.59q9.75,0,14.66,5.62t5,16.41v17.8a4.21,4.21,0,0,0,.43,2,3.93,3.93,0,0,0,1,1.27,5.3,5.3,0,0,0,1.23.73,6.46,6.46,0,0,0,1.48.39l-2.5.77a16.71,16.71,0,0,1-4.87.68,8.77,8.77,0,0,1-5.35-1.5q-2-1.5-2.12-5.15V128.47q0-2.86-.18-6.24a27.54,27.54,0,0,0-1.09-6.4,11,11,0,0,0-3-5,8.58,8.58,0,0,0-6-2,9.46,9.46,0,0,0-6.19,2.64,12,12,0,0,0-3.37,5.65l.14-.14v28.32a5.65,5.65,0,0,0,.5,2.32,4.22,4.22,0,0,0,1.14,1.46,4.32,4.32,0,0,0,1.37.77,9.63,9.63,0,0,0,1.64.36v1.09Z" transform="translate(1.51 0.98)"/><path class="cls-1" d="M1088.7,155.41a28.2,28.2,0,0,1-12.59-2.71,20.41,20.41,0,0,1-8.67-7.88,23.65,23.65,0,0,1-3.14-12.5q0-7.61,3.35-12.63a20.36,20.36,0,0,1,9-7.51,31.29,31.29,0,0,1,12.61-2.48h.55q10.74,0,14.16,5.28,3.78,6,3.78,17.76c0,.24-.52.3-1.55.18H1075q.54,8.37,4.78,12.61,5,5,9.88,5.42,6.82-.09,12.34-8.1l5.55,2.14a22.78,22.78,0,0,1-2.09,3.32,18.1,18.1,0,0,1-3.39,3.39,17.26,17.26,0,0,1-5.07,2.71,22.43,22.43,0,0,1-7.28,1ZM1075,129.6h22.13v-2c0-1.3-.08-3.06-.25-5.26a18.72,18.72,0,0,0-1.43-6,5,5,0,0,0-3.78-3.21h.09a19.66,19.66,0,0,0-2.32-.14,22,22,0,0,0-2.28.14h0q-3.78.5-8,5-3.31,3.67-4.16,11.5Z" transform="translate(1.51 0.98)"/><path class="cls-1" d="M831.3,151.29H811.36v-1.18a8.32,8.32,0,0,0,1.64-.3,4.86,4.86,0,0,0,1.37-.68,3.64,3.64,0,0,0,1.14-1.37,5.35,5.35,0,0,0,.5-2.25V110.29a2.51,2.51,0,0,0-.61-1.68,3.06,3.06,0,0,0-1.18-.8,6.26,6.26,0,0,0-.89-.25h0a1.39,1.39,0,0,1,.27-.09c.76-.24,2.12-.62,4.1-1.12a21.46,21.46,0,0,1,5.19-.75c2.34,0,3.55.64,3.64,1.91a.29.29,0,0,0,0,.09.29.29,0,0,1,0,.09h0a21,21,0,0,1,4.58-1.5,29.46,29.46,0,0,1,6.26-.59q9.75,0,14.66,5.62t5,16.41v17.8a4.21,4.21,0,0,0,.43,2,3.93,3.93,0,0,0,1,1.27,5.3,5.3,0,0,0,1.23.73,6.46,6.46,0,0,0,1.48.39l-2.5.77a16.71,16.71,0,0,1-4.87.68,8.77,8.77,0,0,1-5.35-1.5q-2-1.5-2.12-5.15V128.47q0-2.86-.18-6.24a27.54,27.54,0,0,0-1.09-6.4,11,11,0,0,0-3-5,8.58,8.58,0,0,0-6-2,9.46,9.46,0,0,0-6.19,2.64,12,12,0,0,0-3.37,5.65l.14-.14v28.32a5.65,5.65,0,0,0,.5,2.32,4.22,4.22,0,0,0,1.14,1.46,4.32,4.32,0,0,0,1.37.77,9.63,9.63,0,0,0,1.64.36v1.09Z" transform="translate(1.51 0.98)"/><path class="cls-1" d="M780.31,117" transform="translate(1.51 0.98)"/><path class="cls-2" d="M60,149.9a1.56,1.56,0,0,0-.24.21,1.47,1.47,0,0,0-.18.26,2,2,0,0,0-.09.21l0,.08a.72.72,0,0,0,0,.09c0,.08,0,.16,0,.23a.44.44,0,0,0,0,.22.39.39,0,0,0,.12.18.43.43,0,0,0,.18.12.44.44,0,0,0,.22,0l.15,0a.57.57,0,0,0,.25-.15l.09-.11a.55.55,0,0,0,.08-.29s0,0,0-.07,0,.1,0,.15a.73.73,0,0,1,.05-.2l-.06.14a1,1,0,0,1,.1-.17l-.09.11a.74.74,0,0,1,.13-.13l-.11.09h0a.4.4,0,0,0,.16-.15.44.44,0,0,0,.1-.2.47.47,0,0,0,0-.23.43.43,0,0,0-.07-.21.58.58,0,0,0-.34-.26l-.15,0a.6.6,0,0,0-.29.08Z" transform="translate(1.51 0.98)"/><path class="cls-2" d="M231.58,83a.57.57,0,0,0,0-1.15.57.57,0,0,0,0,1.15Z" transform="translate(1.51 0.98)"/><path class="cls-2" d="M162.19,230.6l-1-2.48a13.49,13.49,0,0,0,5.76-5.85c3.25-5.93,3.43-14.55.52-24.91a23.14,23.14,0,0,0-5.61-9.93,17.32,17.32,0,0,0-5.74-4c-4.42-.27-14.18-.31-22.05-.34-6.88,0-10.51,0-11.29-.15-2.17-.31-9.45-2.14-12.11-12.84a7.76,7.76,0,0,1,.65-5.41c1-1.87,2.39-4.63,3.73-7.13,1.25-2.33-.86-5.47-1.82-6.72a5.5,5.5,0,0,1-1.14-3.7,7.09,7.09,0,0,1,2.59-5.51,7,7,0,0,1,4.52-1.24c-2.51-1.72-5.14-4.06-5.9-5.49-2.5-4.67-.16-6.48,4.09-9.75l2-1.55a5,5,0,0,0,.63-5.75,24.7,24.7,0,0,0-4.44-5.76c-.47-.39-4.11-3.58-4.44-7.8-.28-3.52,4-5.43,7.85-7.12.85-.38,1.65-.73,2.38-1.09,1.35-.67,2.58-1.25,3.77-1.81,8.22-3.87,11.62-5.48,16-18.15l.07-.16a7.74,7.74,0,0,0,.86-2.77c-.31-3.9,3.78-10.72,6-13.51.21-.27,1-1.72,1.82-3.25C156,45.3,174,11.81,194.52,11.81c.39,0,.78,0,1.18,0l-.17,2.68c-19.29-1.22-37.3,32.21-43.22,43.19a34,34,0,0,1-2.09,3.66c-2.63,3.24-5.64,9.14-5.45,11.61a9.76,9.76,0,0,1-1.1,4.1c-4.78,13.66-9,15.65-17.4,19.61-1.18.55-2.39,1.13-3.73,1.79-.78.38-1.61.75-2.48,1.14-2.69,1.19-6.39,2.83-6.26,4.46.25,3.26,3.48,5.95,3.51,6l.07.06a27.25,27.25,0,0,1,5,6.54c1.95,3.9.34,7.7-1.37,9-.73.58-1.41,1.1-2,1.58-4.39,3.38-4.76,3.77-3.36,6.36.79,1.47,5.79,5.48,8,6.19l1.11.35c.77.24,1.51.47,2.06.67.85.29,1.8.62,1.77,1.7a1.37,1.37,0,0,1-1.06,1.29l-.21,0-.21,0c-5.47-.4-5.68-.45-5.79-.48-2.28-.54-4-.4-5.05.39a4.69,4.69,0,0,0-1.52,3.52,2.83,2.83,0,0,0,.59,1.91c1.59,2.06,4,6,2.06,9.62-1.33,2.48-2.75,5.22-3.7,7.09a5.1,5.1,0,0,0-.43,3.54c2.25,9.08,8.13,10.59,9.88,10.84.65.09,5.88.11,10.93.13,8,0,18,.07,22.43.36l.21,0,.2.08a19.83,19.83,0,0,1,6.86,4.7A25.84,25.84,0,0,1,170,196.65c3.18,11.33,2.89,20.46-.86,27.13A15.76,15.76,0,0,1,162.19,230.6Z" transform="translate(1.51 0.98)"/><path class="cls-2" d="M37,178a49.77,49.77,0,0,1-12.52-2,137.43,137.43,0,0,1-17-6l-3.1-1.36,3.19-1.13c14.84-5.24,24.46-3.68,29.91-1.46,6.07,2.48,8.52,6.28,8.62,6.45l.38.61-.3.66C45,176.61,41.89,178,37,178ZM11.92,169c11.66,4.7,27.89,9.11,31.51,4.37a17.85,17.85,0,0,0-7.08-4.85C31.77,166.65,23.91,165.37,11.92,169Z" transform="translate(1.51 0.98)"/><path class="cls-2" d="M42.37,221l3.28-2.91c20-17.74,29.69-11.72,30.09-11.46l.07,0c1.85,1.4,1.95,2.8,1.7,3.74-.5,1.89-2.81,4.45-16.36,7.44-7.22,1.59-14.36,2.55-14.44,2.56Zm28.1-12.87c-3.68,0-10.08,1.52-19.41,8.91,2.63-.43,6.08-1,9.54-1.81,13.3-2.94,14.27-5.25,14.33-5.5s-.21-.52-.67-.87A8.33,8.33,0,0,0,70.47,208.14Z" transform="translate(1.51 0.98)"/><path class="cls-2" d="M265.42,69.8a30.58,30.58,0,0,1-12-2.21c-6-2.55-8.44-6.39-8.54-6.55l-.38-.62.31-.65c2.24-4.75,9.56-5.41,21.76-2A136.93,136.93,0,0,1,283.48,64l3.08,1.4-3.2,1.09A56,56,0,0,1,265.42,69.8Zm-17.77-9.54a17.89,17.89,0,0,0,7,4.94c4.57,1.88,12.4,3.25,24.44-.18C267.5,60.18,251.32,55.56,247.65,60.26Z" transform="translate(1.51 0.98)"/><path class="cls-2" d="M221.22,27.81a10.11,10.11,0,0,1-5.46-1.26l-.07,0c-1.83-1.42-1.91-2.83-1.66-3.75.52-1.89,2.86-4.42,16.45-7.24,7.24-1.5,14.39-2.38,14.47-2.39l4.36-.53L246,15.46C234.24,25.62,226.07,27.81,221.22,27.81Zm-3.95-3.47c.54.3,7.9,4,23.3-7.91-2.64.4-6.09,1-9.56,1.7-13.33,2.77-14.33,5.08-14.4,5.33S216.82,24,217.27,24.34Z" transform="translate(1.51 0.98)"/><path class="cls-2" d="M143.46,74.45s-6.28-.6-7.28-6c0,0,3,9.46,6.49,8" transform="translate(1.51 0.98)"/><path class="cls-2" d="M141.92,77.9a3.44,3.44,0,0,1-1.44-.33c-2.13-1-3.77-4.13-4.72-6.41a8,8,0,0,1-.9-2.5l2.59-.65c.2.61.44,1.3.74,2,1.66,2.71,5.35,3.09,5.4,3.1l-.25,2.67a9.35,9.35,0,0,1-1-.15l.85,2A3.27,3.27,0,0,1,141.92,77.9Z" transform="translate(1.51 0.98)"/><path class="cls-2" d="M143.37,232.34a108.1,108.1,0,0,1-13.61-.86,111.57,111.57,0,0,1-44.45-16l-.11-.06c-1.12-.56-8.78-4.53-18.49-13.71C57.26,192.82,44,177,34.63,152.56l0-.1a130.72,130.72,0,0,1-6-29.91,1.52,1.52,0,0,1,1.45-1.61h0a1.51,1.51,0,0,1,1.58,1.42,127.64,127.64,0,0,0,5.82,29.11l0,.11c9.16,23.81,22,39.18,31.19,47.88,10,9.45,17.87,13.3,17.95,13.33l.14.08c31,19.07,60.63,18.08,80,13.89a115.73,115.73,0,0,0,34-13.09,1.52,1.52,0,0,1,2,.46h0a1.51,1.51,0,0,1-.47,2.14,116.79,116.79,0,0,1-34.77,13.43A114.27,114.27,0,0,1,143.37,232.34Z" transform="translate(1.51 0.98)"/><path class="cls-2" d="M29.42,123.58l-.54-1c-.24-.44-5.73-11-2.58-20.29A57.71,57.71,0,0,1,30.72,93c2.77-5,5.4-9.79,4.52-14.7-.13-.73-.4-2.25,1-2.58s2,.86,3.11,4.81c.82,2.79,3.45,12.68,2.94,22.64-.54,10.6-4.6,17.53-11.75,20Zm8.14-39.25a44.31,44.31,0,0,1-4.49,9.94,55.7,55.7,0,0,0-4.23,8.86c-2.23,6.61.66,14.3,1.9,17.09,3.42-1.57,5.89-4.48,7.34-8.69C41,103.09,39.29,91.5,37.56,84.33Z" transform="translate(1.51 0.98)"/><path class="cls-2" d="M26.56,153.85c-2.49,0-6.89-2-16.41-19.69-5.09-9.43-9.25-19-9.29-19.09L0,113.14l2.1.05c19.58.51,31.66,26.3,32.16,27.4l-2.43,1.12c-.11-.24-10.93-23.35-27.62-25.66,1.49,3.3,4.65,10.11,8.28,16.85,9.14,17,13.06,18.27,14,18.27,5.42,0,7.12-.47,7.54-.62l.45-.64,2.19,1.54-.54.77C35.88,152.81,34.92,153.85,26.56,153.85Zm7.65-3.35Z" transform="translate(1.51 0.98)"/><path class="cls-2" d="M50.08,181.73c-.18-.7-4.1-16.57,3-26.49A20.59,20.59,0,0,1,47.57,148c-2.39-5.13-4.12-14.07,1.22-27.51l.79-2L51,120a48.22,48.22,0,0,1,7.65,12c3.08,7.12,3.28,13.56.63,18.9a37.91,37.91,0,0,1,23-1.26l2.44.59L82.91,152a37.53,37.53,0,0,1-9.49,6.1c-7,3-13.2,2.53-18-1.46-6.56,8.89-2.77,24.25-2.73,24.41Zm7.33-26.9c7.54,5.89,17.28.09,21.53-3.05C68.18,150,60.49,153.17,57.41,154.83ZM50.47,123.6c-3.16,9-3.35,16.92-.54,23.08a18.14,18.14,0,0,0,4.79,6.41C63.62,142.67,54.26,128.5,50.47,123.6Z" transform="translate(1.51 0.98)"/><path class="cls-2" d="M60.19,151.33l-.36-.88c-.11-.26-2.56-6.52,1-14.62,4-9.17,13.84-16.76,29.19-22.54l1.75-.66.06,1.87a47.72,47.72,0,0,1-3.38,17.7c-3.38,8.27-10.87,18.29-27.3,19.09Zm28.92-34.83c-13.54,5.4-22.21,12.22-25.8,20.31A18.31,18.31,0,0,0,62,148.55c11.48-.86,19.52-6.68,23.89-17.29A46,46,0,0,0,89.11,116.51Z" transform="translate(1.51 0.98)"/><path class="cls-2" d="M87,215.55l-2-1.78a7.45,7.45,0,0,0,2.05-6.6c-1.26-6.87-11-13.62-16.12-16.71,5.23,14.74,9.43,18.72,9.47,18.77l-1.79,2c-.21-.19-5.33-4.89-11.37-23.27l-1-3.12,2.92,1.52c.76.39,18.61,9.78,20.55,20.34A10.09,10.09,0,0,1,87,215.55Z" transform="translate(1.51 0.98)"/><path class="cls-2" d="M48,201.88a26.21,26.21,0,0,1-10.47-2.09,22.56,22.56,0,0,1-8.61-6.3l-1.34-1.77,2.19-.36c28.21-4.57,32.21,1.31,32.78,3.1l1.84,3.35-1.33.59A37.11,37.11,0,0,1,48,201.88Zm-15.26-8.27a21.9,21.9,0,0,0,6,3.77c6.43,2.73,13.79,2.44,21.91-.86L60,195.33v-.07C59.67,194.68,56.23,190.16,32.78,193.61Z" transform="translate(1.51 0.98)"/><path class="cls-2" d="M258.78,111.36a127.44,127.44,0,0,0-5.45-29.18l0-.11c-8.86-23.92-21.52-39.44-30.59-48.26-9.85-9.57-17.7-13.51-17.78-13.55l-.14-.08A107,107,0,0,0,124.93,5.32,115.68,115.68,0,0,0,90.81,18a1.51,1.51,0,0,1-2-.48h0a1.51,1.51,0,0,1,.5-2.13,116.74,116.74,0,0,1,34.93-13A109.36,109.36,0,0,1,206.3,17.55l.11.06c1.12.57,8.72,4.63,18.31,13.93,9.34,9.06,22.39,25,31.46,49.59l0,.1c3.29,11.17,5.17,21.24,5.6,30a1.52,1.52,0,0,1-1.47,1.59h0A1.52,1.52,0,0,1,258.78,111.36Z" transform="translate(1.51 0.98)"/><path class="cls-2" d="M253.27,158c-1.11,0-1.66-1.32-2.66-4.89-.78-2.8-3.29-12.72-2.66-22.67.67-10.59,4.82-17.48,12-19.91l1.09-.37.53,1c.23.45,5.59,11,2.33,20.32a57.6,57.6,0,0,1-4.54,9.24c-2.84,5-5.52,9.72-4.7,14.65.12.73.38,2.26-1,2.56A1.38,1.38,0,0,1,253.27,158Zm6.41-44.5c-3.44,1.52-5.94,4.41-7.45,8.6-3,8.41-1.46,20,.17,27.2a44.16,44.16,0,0,1,4.62-9.88,55.59,55.59,0,0,0,4.34-8.8C263.68,124,260.88,116.32,259.68,113.51Z" transform="translate(1.51 0.98)"/><path class="cls-2" d="M290.29,121l-2.1-.08c-19.58-.75-31.32-26.68-31.81-27.79L258.83,92c.11.24,10.64,23.48,27.29,26-1.45-3.32-4.52-10.17-8.07-16.95C269.12,84,265.22,82.63,264.24,82.62c-5.42-.07-7.13.38-7.54.53l-.46.63-2.17-1.57.55-.77c.33-.58,1.3-1.62,9.66-1.51,2.49,0,6.87,2.12,16.16,19.89,5,9.5,9,19.11,9,19.2Z" transform="translate(1.51 0.98)"/><path class="cls-2" d="M240.81,115l-1.42-1.62a48.33,48.33,0,0,1-7.48-12.16c-3-7.16-3.08-13.6-.38-18.91a37.83,37.83,0,0,1-23,1L206,82.76l1.86-1.68a37.63,37.63,0,0,1,9.56-6c7-3,13.23-2.37,18,1.68,6.68-8.82,3.08-24.22,3-24.38l2.6-.63c.17.7,3.89,16.62-3.38,26.45a20.54,20.54,0,0,1,5.45,7.35c2.32,5.16,3.94,14.12-1.56,27.49Zm-4.7-34.7c-8.95,10.31.18,24.58,3.88,29.54C246.71,91.53,239,82.81,236.1,80.35Zm-24.23,1a34,34,0,0,0,21.54-2.81C225.95,72.61,216.16,78.28,211.87,81.37Z" transform="translate(1.51 0.98)"/><path class="cls-2" d="M198.52,120.37v-1.9a49.11,49.11,0,0,1,3.86-17.83c3.6-8.31,11.34-18.33,27.79-18.93l1,0,.33.92c.09.24,2.08,6-.9,13.46-3.89,9.82-14.08,17.79-30.27,23.66Zm30.67-35.93c-11.49.73-19.67,6.51-24.33,17.19a47.3,47.3,0,0,0-3.57,14.87c14.05-5.42,23.27-12.75,26.73-21.25A18.88,18.88,0,0,0,229.19,84.44Z" transform="translate(1.51 0.98)"/><path class="cls-2" d="M225,48.48l-2.9-1.55c-.75-.4-18.48-10-20.29-20.59a10.1,10.1,0,0,1,2.8-8.83l2,1.81a7.45,7.45,0,0,0-2.14,6.58c1.18,6.87,10.87,13.75,15.91,16.9-5-14.8-9.19-18.83-9.24-18.88l1.81-2c.21.2,5.27,5,11.08,23.41Z" transform="translate(1.51 0.98)"/><path class="cls-2" d="M244.37,43.88c-12.91,0-15.2-3.64-15.61-5L227,35.52l1.34-.57c11.79-5,20.4-3.36,25.54-1.07a22.53,22.53,0,0,1,8.53,6.4l1.32,1.79-2.2.33A118.56,118.56,0,0,1,244.37,43.88Zm-13-5.76c.33.59,3.72,5.15,27.21,2a21.88,21.88,0,0,0-5.93-3.84c-6.4-2.81-13.76-2.61-21.92.59l.64,1.2Z" transform="translate(1.51 0.98)"/></svg>