<svg id="Capa_1" data-name="Capa 1" xmlns="http://www.w3.org/2000/svg" width="306.71" height="68.35" viewBox="0 0 306.71 68.35">
  <title>logo-min3</title>
  <g>
    <path d="M-269.45,535.75-270,533h-4.47l-.61,2.78h-5l4.79-18.62h6.18l4.79,18.62Zm-4.26-6.38h2.9l-1.42-6.7Z" transform="translate(360.21 -505.58)" fill="#fff"/>
    <path d="M-258.12,529.13v6.61h-5.07V517.13h8.61q4.26,0,4.26,3.6v4.81a3.12,3.12,0,0,1-2.49,3.39l3.42,6.81h-5.45l-3-6.61Zm2-8.38h-2v4.93h2q.73,0,.73-.64v-3.65Q-255.39,520.75-256.11,520.75Z" transform="translate(360.21 -505.58)" fill="#fff"/>
    <path d="M-244.11,535.75q-4.26,0-4.26-3.6V520.72q0-3.6,4.26-3.6h4.29q4.26,0,4.26,3.6v11.43a3.32,3.32,0,0,1-1.07,2.7l2.7,2.87h-5.77l-1.83-2Zm.81-14.35v10.09q0,.64.73.64h1.22q.73,0,.73-.64V521.39q0-.64-.73-.64h-1.22Q-243.3,520.75-243.3,521.39Z" transform="translate(360.21 -505.58)" fill="#fff"/>
    <path d="M-233.32,535.75V531h5v4.76Z" transform="translate(360.21 -505.58)" fill="#fff"/>
    <path d="M-211.57,517.13h5v18.62h-5v-7.37h-3.65v7.37h-5V517.13h5v7.63h3.65Z" transform="translate(360.21 -505.58)" fill="#fff"/>
    <path d="M-200.09,517.13h4.29q4.26,0,4.26,3.6v11.43q0,3.6-4.26,3.6h-4.29q-4.26,0-4.26-3.6V520.72Q-204.35,517.13-200.09,517.13Zm3.48,14.35V521.39q0-.64-.73-.64h-1.22q-.73,0-.73.64v10.09q0,.64.73.64h1.22Q-196.61,532.12-196.61,531.48Z" transform="translate(360.21 -505.58)" fill="#fff"/>
    <path d="M-184.22,529.13v6.61h-5.07V517.13h8.61q4.26,0,4.26,3.6v4.81a3.12,3.12,0,0,1-2.49,3.39l3.42,6.81h-5.45l-3-6.61Zm2-8.38h-2v4.93h2q.73,0,.73-.64v-3.65Q-181.5,520.75-182.22,520.75Z" transform="translate(360.21 -505.58)" fill="#fff"/>
    <path d="M-164.91,535.75l-.58-2.78H-170l-.61,2.78h-5l4.79-18.62h6.18l4.79,18.62Zm-4.26-6.38h2.9l-1.42-6.7Z" transform="translate(360.21 -505.58)" fill="#fff"/>
    <path d="M-146.18,524.09h-5.07v-3q0-.64-.73-.64h-1q-.73,0-.73.64v10.67q0,.64.73.64h1q.72,0,.73-.64V528.9h5.07v3.25q0,3.6-4.26,3.6h-4.09q-4.26,0-4.26-3.6V520.72q0-3.6,4.26-3.6h4.09q4.26,0,4.26,3.6Z" transform="translate(360.21 -505.58)" fill="#fff"/>
    <path d="M-144.29,517.13h5.07v18.62h-5.07Z" transform="translate(360.21 -505.58)" fill="#fff"/>
    <path d="M-132.72,517.13h4.29q4.26,0,4.26,3.6v11.43q0,3.6-4.26,3.6h-4.29q-4.26,0-4.26-3.6V520.72Q-137,517.13-132.72,517.13Zm3.48,14.35V521.39q0-.64-.73-.64h-1.22q-.73,0-.73.64v10.09q0,.64.73.64H-130Q-129.24,532.12-129.24,531.48Z" transform="translate(360.21 -505.58)" fill="#fff"/>
    <path d="M-278.65,543.64h8.55q4.26,0,4.26,3.6v11.43q0,3.6-4.26,3.6h-8.55Zm7.74,14.65V547.62q0-.64-.73-.64h-1.94v11.95h1.94Q-270.9,558.93-270.9,558.29Z" transform="translate(360.21 -505.58)" fill="#fff"/>
    <path d="M-258.52,558.64h6.35v3.63H-263.6V543.64h11.17v3.63h-6.09v3.8h5.25v3.63h-5.25Z" transform="translate(360.21 -505.58)" fill="#fff"/>
    <path d="M-239.7,558.64h5.77v3.63h-10.85V543.64h5.07Z" transform="translate(360.21 -505.58)" fill="#fff"/>
    <path d="M-223.29,562.26l-.58-2.78h-4.47l-.61,2.78h-5l4.79-18.62H-223l4.79,18.62Zm-4.26-6.38h2.9l-1.42-6.7Z" transform="translate(360.21 -505.58)" fill="#fff"/>
    <path d="M-198.72,550h-5.08v-2.41q0-.64-.73-.64h-1q-.73,0-.73.64v10.67q0,.64.73.64h1q.72,0,.73-.64v-3.1h-1.45V552h6.53v6.7q0,3.6-4.26,3.6h-4.12q-4.26,0-4.26-3.6V547.24q0-3.59,4.26-3.6H-203q4.26,0,4.26,3.6Z" transform="translate(360.21 -505.58)" fill="#fff"/>
    <path d="M-187.21,562.26l-.58-2.78h-4.47l-.61,2.78h-5l4.79-18.62h6.18l4.79,18.62Zm-4.26-6.38h2.9l-1.42-6.7Z" transform="translate(360.21 -505.58)" fill="#fff"/>
    <path d="M-175.87,555.65v6.61h-5.07V543.64h8.61q4.26,0,4.26,3.6v4.81a3.12,3.12,0,0,1-2.49,3.39l3.42,6.82h-5.45l-3-6.61Zm2-8.38h-2v4.93h2q.73,0,.73-.64v-3.65Q-173.15,547.27-173.87,547.27Z" transform="translate(360.21 -505.58)" fill="#fff"/>
    <path d="M-154.33,543.64v3.63l-7,11.37h6.79v3.63h-12.09v-3.62l7-11.37h-6.61v-3.62Z" transform="translate(360.21 -505.58)" fill="#fff"/>
    <path d="M-143.1,562.26l-.58-2.78h-4.47l-.61,2.78h-5l4.79-18.62h6.18l4.79,18.62Zm-4.26-6.38h2.9l-1.42-6.7Z" transform="translate(360.21 -505.58)" fill="#fff"/>
    <path d="M-121.56,562.26l-.58-2.78h-4.47l-.61,2.78h-5l4.79-18.62h6.18l4.79,18.62Zm-4.26-6.38h2.9l-1.42-6.7Z" transform="translate(360.21 -505.58)" fill="#fff"/>
    <path d="M-110.22,555.65v6.61h-5.07V543.64h8.61q4.26,0,4.26,3.6v4.81a3.12,3.12,0,0,1-2.49,3.39l3.42,6.82h-5.45l-3-6.61Zm2-8.38h-2v4.93h2q.73,0,.73-.64v-3.65Q-107.49,547.27-108.22,547.27Z" transform="translate(360.21 -505.58)" fill="#fff"/>
    <path d="M-100.39,543.64h5.07v18.62h-5.07Z" transform="translate(360.21 -505.58)" fill="#fff"/>
    <path d="M-81.28,543.64v3.63l-7,11.37h6.79v3.63H-93.57v-3.62l7-11.37h-6.61v-3.62Z" transform="translate(360.21 -505.58)" fill="#fff"/>
    <path d="M-79.54,543.64h8.61q4.26,0,4.26,3.6v5.34q0,3.6-4.26,3.6h-3.54v6.09h-5.07Zm7.8,8.27v-4q0-.64-.73-.64h-2v5.28h2Q-71.74,552.55-71.74,551.91Z" transform="translate(360.21 -505.58)" fill="#fff"/>
    <path d="M-59.85,558.64h6.35v3.63H-64.92V543.64h11.17v3.63h-6.09v3.8h5.25v3.63h-5.25Z" transform="translate(360.21 -505.58)" fill="#fff"/>
  </g>
  <g>
    <polyline points="11.39 0.25 0.25 0.25 0.25 68.1 31.14 68.1" fill="none" stroke="#454545" stroke-miterlimit="10" stroke-width="0.5"/>
    <polyline points="36.91 0.25 68.1 0.25 68.1 68.1 56.3 68.1" fill="none" stroke="#454545" stroke-miterlimit="10" stroke-width="0.5"/>
    <g>
      <path d="M-317.5,523.38v10.75h-17.06V523.38a.25.25,0,0,0-.25-.25h-4.88a.25.25,0,0,0-.25.25v26.88a.25.25,0,0,0,.25.25h4.88a.25.25,0,0,0,.25-.25V539.52h17.06v10.75a.25.25,0,0,0,.25.25h4.88a.25.25,0,0,0,.25-.25V523.38a.25.25,0,0,0-.25-.25h-4.88A.25.25,0,0,0-317.5,523.38Z" transform="translate(360.21 -505.58)" fill="#fff"/>
      <path d="M-334.56,519.44V514.7a.33.33,0,0,0-.33-.33h-14.16a.33.33,0,0,0-.33.33v44.24a.33.33,0,0,0,.33.33h14.16a.33.33,0,0,0,.33-.33v-4.74a.33.33,0,0,0-.33-.33H-344V519.76h9.1A.33.33,0,0,0-334.56,519.44Z" transform="translate(360.21 -505.58)" fill="#fff"/>
      <path d="M-317.5,554.21v4.74a.33.33,0,0,0,.33.33H-303a.33.33,0,0,0,.33-.33V514.7a.33.33,0,0,0-.33-.33h-14.16a.33.33,0,0,0-.33.33v4.74a.33.33,0,0,0,.33.33h9.1v34.12h-9.1A.33.33,0,0,0-317.5,554.21Z" transform="translate(360.21 -505.58)" fill="#fff"/>
      <path d="M-303.25,564.43l0,0h0l0,0h0l0,0h0v-.06h0l0,0h0a2,2,0,0,0-1.55-1h0a2.63,2.63,0,0,0-.39,0,2.49,2.49,0,0,0-.83.14h0a2,2,0,0,0-1.31,1.47h0v.07h0V565s0,0,0,.07h0a2,2,0,0,0,.11.66h0l0,0h0l0,0h0l0,0h0V566h0l0,0h0a2,2,0,0,0,1.42,1v.83h1.05v-.82l.3-.08h0a2,2,0,0,0,1.31-1.47h0v-.07h0v-.25s0,0,0-.07h0a2,2,0,0,0-.11-.66Zm-2.06,1.81a1.07,1.07,0,0,1-.79-.32,1.15,1.15,0,0,1-.32-.82,1.09,1.09,0,0,1,1.1-1.14,1.07,1.07,0,0,1,.79.32,1.15,1.15,0,0,1,.32.82A1.09,1.09,0,0,1-305.31,566.24Z" transform="translate(360.21 -505.58)" fill="#fff"/>
      <path d="M-324.39,565c0-.89-.68-1.43-1.74-1.43h-1.76v3.87h1.06v-3h.63c.5,0,.75.22.75.6s-.25.6-.75.6h-.52l1.27,1.84h1.14l-.86-1.22A1.28,1.28,0,0,0-324.39,565Z" transform="translate(360.21 -505.58)" fill="#fff"/>
      <polygon points="12.56 58 10.83 61.86 11.86 61.86 13.09 58.93 14.3 61.86 15.35 61.86 13.61 58 12.56 58" fill="#fff"/>
    </g>
  </g>
</svg>
