<svg xmlns="http://www.w3.org/2000/svg" xmlns:xlink="http://www.w3.org/1999/xlink" viewBox="0 0 2438.88 624.94"><defs><style>.cls-1{fill:none;}.cls-2{fill:#fff;}.cls-3{clip-path:url(#clip-path);}.cls-4{fill:url(#Degradado_sin_nombre_2);}.cls-5{clip-path:url(#clip-path-2);}.cls-6{fill:url(#Degradado_sin_nombre_2-2);}</style><clipPath id="clip-path" transform="translate(0 0)"><path class="cls-1" d="M1150.82,237.44l-8.58,8.58-49.89,49.89-29.29,29.29-71.43,71.43-6.29-23.48a6.16,6.16,0,0,0-10.3-2.76l-18.47,18.48a8,8,0,0,0-2.07,7.74l9.42,35.15a20.43,20.43,0,0,0,34.18,9.16L1062,377l0,0,11.82-11.82,29.29-29.29,7-7,0,0,60.21-60.21a17.08,17.08,0,0,1,3-3,16.79,16.79,0,0,1,10.3-3.54,17.13,17.13,0,0,1,16.89,17.13V572.19a17,17,0,0,1-16.77,17,16.7,16.7,0,0,1-15.8-11.48v0a15.27,15.27,0,0,1-.47-1.76.09.09,0,0,1,0,0l-12.74-47.53L1112.52,371.2a6.16,6.16,0,0,0-10.3-2.76l-18.47,18.47a8,8,0,0,0-2.07,7.73l50.26,187.58a.26.26,0,0,0,0,0l2,7.34h0a52.67,52.67,0,0,0,46.57,35.23q1.56.1,3.16.1a52.6,52.6,0,0,0,52.65-52.65V278.77a52.72,52.72,0,0,0-85.47-41.32"/></clipPath><linearGradient id="Degradado_sin_nombre_2" x1="-183.13" y1="817.46" x2="-182.13" y2="817.46" gradientTransform="matrix(282.08, 0, 0, -282.08, 52610.96, 231010.29)" gradientUnits="userSpaceOnUse"><stop offset="0" stop-color="#fb3e21"/><stop offset="0.01" stop-color="#fb3e21"/><stop offset="0.22" stop-color="#fb4f1c"/><stop offset="0.64" stop-color="#fb7c10"/><stop offset="0.99" stop-color="#fba704"/><stop offset="1" stop-color="#fba704"/></linearGradient><clipPath id="clip-path-2" transform="translate(0 0)"><path class="cls-1" d="M828.11,2.75a52.74,52.74,0,0,0-35.87,50V394.42a52.72,52.72,0,0,0,29.18,47.19,52,52,0,0,0,6.68,2.78,52.8,52.8,0,0,0,51.41-10.15l5.27-5.27,50.35-50.35h0l11.47-11.47,29.29-29.29,12.48-12.48h0l58.95-58.95,6.25,23.33a6.16,6.16,0,0,0,10.3,2.76l18.47-18.47a8,8,0,0,0,2.07-7.74l-4.51-16.83a31.29,31.29,0,0,0-52.34-14L990.06,273l.07.07L965.19,298l-29.29,29.29-.71.7-.07-.07-76.86,76.86a17.09,17.09,0,0,1-3,3,16.78,16.78,0,0,1-10.3,3.54,17.13,17.13,0,0,1-16.89-17.13V53a16.86,16.86,0,0,1,32.67-6.09v0a16.38,16.38,0,0,1,.78,2.91v0l12.54,46.8L926.44,292a6.16,6.16,0,0,0,10.3,2.76l18.47-18.47a8,8,0,0,0,2.07-7.74L896.57,41.89h0l-1.51-5.62v0A52.76,52.76,0,0,0,848.24.1Q846.61,0,845,0a52.63,52.63,0,0,0-16.85,2.75"/></clipPath><linearGradient id="Degradado_sin_nombre_2-2" x1="-183.13" y1="817.46" x2="-182.13" y2="817.46" gradientTransform="matrix(-292.45, 0, 0, 292.45, -52474.77, -238841.94)" xlink:href="#Degradado_sin_nombre_2"/></defs><title>hidroelectrik-logo-1</title><g id="Capa_2" data-name="Capa 2"><g id="Capa_1-2" data-name="Capa 1"><path class="cls-2" d="M1.76,289.41A5.81,5.81,0,0,1,0,285.13V120.8a6.43,6.43,0,0,1,1.63-4.54,5.76,5.76,0,0,1,4.42-1.77H29a5.75,5.75,0,0,1,4.41,1.77,6.4,6.4,0,0,1,1.64,4.54v65.12h74.46V120.8a6.4,6.4,0,0,1,1.64-4.54,5.73,5.73,0,0,1,4.41-1.77h22.72a6.06,6.06,0,0,1,6.32,6.31V285.13a5.76,5.76,0,0,1-1.77,4.42,6.42,6.42,0,0,1-4.54,1.64H115.6a6,6,0,0,1-6.06-6.06V217.48H35.08v67.65a6,6,0,0,1-1.64,4.29A5.72,5.72,0,0,1,29,291.18h-23a5.81,5.81,0,0,1-4.29-1.77" transform="translate(0 0)"/><path class="cls-2" d="M185.77,289.41a5.81,5.81,0,0,1-1.76-4.29V120.55a5.72,5.72,0,0,1,1.76-4.42,6.06,6.06,0,0,1,4.29-1.64h23.72a5.66,5.66,0,0,1,6.06,6.06V285.13a6,6,0,0,1-1.64,4.29,5.72,5.72,0,0,1-4.41,1.77H190.06a5.81,5.81,0,0,1-4.29-1.77" transform="translate(0 0)"/><path class="cls-2" d="M261.24,289.41a5.81,5.81,0,0,1-1.76-4.29V120.8a6.43,6.43,0,0,1,1.63-4.54,5.76,5.76,0,0,1,4.42-1.77h61.58q74.21,0,75.73,68.66.5,14.64.51,19.69,0,4.8-.51,19.43-1,35.35-18.93,52.13t-55.53,16.78H265.53a5.81,5.81,0,0,1-4.29-1.77m65.88-27.26q21.2,0,30.55-9.46t9.84-31.18q.5-15.14.51-18.93,0-4-.51-18.68Q367,163.22,357,153.37t-31.17-9.85h-31.3V262.15Z" transform="translate(0 0)"/><path class="cls-2" d="M438.68,289.41a5.81,5.81,0,0,1-1.76-4.29V120.8a6.44,6.44,0,0,1,1.63-4.54,5.76,5.76,0,0,1,4.42-1.77h65.37q30.8,0,48.34,14.39t17.55,40.89q0,18.43-9,30.92t-24.86,18l36.85,64.36a6.38,6.38,0,0,1,.76,2.78,5,5,0,0,1-1.64,3.79,5.28,5.28,0,0,1-3.66,1.51h-23a9.45,9.45,0,0,1-6.18-1.77,16.5,16.5,0,0,1-3.91-5l-32.56-59.83H472v60.58a6.05,6.05,0,0,1-1.64,4.29,5.71,5.71,0,0,1-4.41,1.77H443a5.81,5.81,0,0,1-4.29-1.77M507.58,196q15.15,0,22.85-6.81t7.7-19.69q0-12.87-7.7-19.94t-22.85-7.07H472V196Z" transform="translate(0 0)"/><path class="cls-2" d="M620.66,276.29q-19.18-17.42-20.19-51.75-.26-7.31-.26-21.45,0-14.39.26-21.7,1-33.57,20.7-51.49t53-17.92q33.32,0,53.13,17.92t20.83,51.49q.5,14.64.5,21.7,0,6.82-.5,21.45-1.27,34.34-20.45,51.75t-53.51,17.42q-34.34,0-53.51-17.42m80.52-21.83q10.09-10.23,10.86-31.17.5-15.14.51-20.44,0-5.81-.51-20.45-.76-20.94-10.86-31.17t-27-10.22q-16.66,0-26.76,10.22t-10.85,31.17q-.26,7.33-.26,20.45,0,12.87.26,20.44.75,21,10.73,31.17t26.88,10.22q16.91,0,27-10.22" transform="translate(0 0)"/><path class="cls-2" d="M1281,508.36a5.78,5.78,0,0,1-1.75-4.26V340.72a6.4,6.4,0,0,1,1.63-4.52,5.73,5.73,0,0,1,4.4-1.76h110.42a6,6,0,0,1,6.28,6.27v16.57a5.7,5.7,0,0,1-1.76,4.39,6.35,6.35,0,0,1-4.52,1.63h-82.56v44.42h77a6.4,6.4,0,0,1,4.52,1.63,5.74,5.74,0,0,1,1.75,4.39v15.56a5.72,5.72,0,0,1-1.75,4.39,6.38,6.38,0,0,1-4.52,1.63h-77v45.93h84.57a6,6,0,0,1,6.28,6.27V504.1a5.72,5.72,0,0,1-1.76,4.39,6.38,6.38,0,0,1-4.52,1.63H1285.23a5.78,5.78,0,0,1-4.27-1.76" transform="translate(0 0)"/><path class="cls-2" d="M1437.05,508.36a5.78,5.78,0,0,1-1.75-4.26V340.47a5.69,5.69,0,0,1,1.75-4.39,6,6,0,0,1,4.27-1.63h23.34a5.63,5.63,0,0,1,6,6V480.26h79.55a6,6,0,0,1,6.28,6.27V504.1a5.69,5.69,0,0,1-1.76,4.39,6.35,6.35,0,0,1-4.52,1.63H1441.32a5.78,5.78,0,0,1-4.27-1.76" transform="translate(0 0)"/><path class="cls-2" d="M1582.61,508.36a5.78,5.78,0,0,1-1.75-4.26V340.72a6.4,6.4,0,0,1,1.63-4.52,5.73,5.73,0,0,1,4.4-1.76H1697.3a6,6,0,0,1,6.28,6.27v16.57a5.7,5.7,0,0,1-1.76,4.39,6.35,6.35,0,0,1-4.52,1.63h-82.56v44.42h77a6.4,6.4,0,0,1,4.52,1.63,5.74,5.74,0,0,1,1.75,4.39v15.56a5.72,5.72,0,0,1-1.75,4.39,6.38,6.38,0,0,1-4.52,1.63h-77v45.93h84.57a6,6,0,0,1,6.28,6.27V504.1a5.72,5.72,0,0,1-1.76,4.39,6.38,6.38,0,0,1-4.52,1.63H1586.88a5.78,5.78,0,0,1-4.27-1.76" transform="translate(0 0)"/><path class="cls-2" d="M1749.61,494.81q-18.95-17.82-20.2-50.19-.25-6.78-.25-22.09,0-15.56.25-22.58,1.25-32.12,20.46-50.07t53.33-17.94q22.33,0,38.9,7.65t25.6,20.83a54.45,54.45,0,0,1,9.54,29.74v.5a4.28,4.28,0,0,1-1.63,3.39,5.49,5.49,0,0,1-3.64,1.38h-23.85a6.9,6.9,0,0,1-4.52-1.26c-1-.84-1.84-2.42-2.51-4.77q-4-15.81-13.31-22.21T1803,360.8q-36.14,0-37.65,40.4-.25,6.78-.25,20.83t.25,21.33q1.52,40.41,37.65,40.4,15.56,0,25-6.53t13.18-22.08c.49-2.34,1.29-3.93,2.38-4.77a7.5,7.5,0,0,1,4.64-1.25H1872a5.51,5.51,0,0,1,3.88,1.5,4.22,4.22,0,0,1,1.39,3.76,54.44,54.44,0,0,1-9.54,29.74q-9,13.18-25.6,20.83t-38.9,7.65q-34.63,0-53.58-17.82" transform="translate(0 0)"/><path class="cls-2" d="M1947.51,508.36a5.79,5.79,0,0,1-1.76-4.26V365.31h-46.43a6,6,0,0,1-6-6V340.72a6.37,6.37,0,0,1,1.63-4.52,5.7,5.7,0,0,1,4.39-1.76h128a6,6,0,0,1,6.28,6.27v18.57a5.83,5.83,0,0,1-1.75,4.27,6.13,6.13,0,0,1-4.53,1.75h-46.17V504.1a5.82,5.82,0,0,1-1.76,4.26,6.11,6.11,0,0,1-4.52,1.76h-23.08a5.78,5.78,0,0,1-4.27-1.76" transform="translate(0 0)"/><path class="cls-2" d="M2060.69,508.36a5.78,5.78,0,0,1-1.75-4.26V340.72a6.4,6.4,0,0,1,1.62-4.51,5.73,5.73,0,0,1,4.4-1.76h65q30.62,0,48.06,14.3t17.45,40.66q0,18.32-8.91,30.74t-24.72,17.95l36.64,64a6.35,6.35,0,0,1,.75,2.76,4.93,4.93,0,0,1-1.63,3.76,5.24,5.24,0,0,1-3.64,1.51h-22.84a9.4,9.4,0,0,1-6.14-1.76,16.42,16.42,0,0,1-3.89-5l-32.37-59.48h-34.89V504.1a6,6,0,0,1-1.63,4.26,5.68,5.68,0,0,1-4.39,1.76H2065a5.78,5.78,0,0,1-4.27-1.76m68.51-92.86q15.06,0,22.72-6.77t7.66-19.58q0-12.8-7.66-19.83t-22.72-7h-35.38v53.2Z" transform="translate(0 0)"/><path class="cls-2" d="M2229.58,508.36a5.78,5.78,0,0,1-1.75-4.26V340.47a5.69,5.69,0,0,1,1.75-4.39,6,6,0,0,1,4.27-1.63h23.59a5.63,5.63,0,0,1,6,6V504.1a6,6,0,0,1-1.63,4.26,5.68,5.68,0,0,1-4.39,1.76h-23.59a5.78,5.78,0,0,1-4.27-1.76" transform="translate(0 0)"/><path class="cls-2" d="M2304.62,508.36a5.78,5.78,0,0,1-1.75-4.26V340.72a6.4,6.4,0,0,1,1.62-4.52,5.74,5.74,0,0,1,4.4-1.76H2331a6,6,0,0,1,6.28,6.27v58.73L2394,339q3.25-4.52,9.78-4.52h24.85a5.24,5.24,0,0,1,3.64,1.51,4.91,4.91,0,0,1,1.63,3.77,4.72,4.72,0,0,1-1,3l-69,75.79,73.78,83.07a5,5,0,0,1,1.26,3.26,4.89,4.89,0,0,1-1.63,3.76,5.24,5.24,0,0,1-3.63,1.51h-25.85a11.71,11.71,0,0,1-9.79-4.52l-60.73-66.51v65a5.73,5.73,0,0,1-1.76,4.39,6.39,6.39,0,0,1-4.52,1.63h-22.08a5.78,5.78,0,0,1-4.27-1.76" transform="translate(0 0)"/><g class="cls-3"><rect class="cls-4" x="953.74" y="226.04" width="282.54" height="398.9"/></g><g class="cls-5"><rect class="cls-6" x="792.24" width="292.92" height="447.14"/></g></g></g></svg>