<svg xmlns="http://www.w3.org/2000/svg" viewBox="0 0 850.55 141.97"><defs><style>.cls-1{fill:#fff;}</style></defs><g id="Capa_2" data-name="Capa 2"><g id="Capa_1-2" data-name="Capa 1"><path class="cls-1" d="M0,139.89,28.23,6.23h66q20.34,0,31.13,10.69T136.15,44a56.49,56.49,0,0,1-1.24,11.42,72.14,72.14,0,0,1-10.07,25.11,50.67,50.67,0,0,1-18.68,17.23Q94.64,104,78,104H46.49L39,139.89ZM52.93,74.1H73.06q10.59,0,15.46-5.19a27,27,0,0,0,6.54-13.49c.27-1.38.48-2.7.62-4a31.57,31.57,0,0,0,.21-3.53c0-3.73-1-6.64-3-8.71s-5.57-3.12-10.69-3.12H61Z"/><path class="cls-1" d="M168.53,142q-17.22,0-27.29-7.79t-10.07-24.8a65,65,0,0,1,.42-7.26c.27-2.49.69-5.12,1.24-7.89a80.06,80.06,0,0,1,12.46-29.16,61.39,61.39,0,0,1,21-19,54.4,54.4,0,0,1,26.36-6.64,42.6,42.6,0,0,1,13.7,2,26.93,26.93,0,0,1,9.13,4.87l1-4.77h39l-20.76,98.38H200.91l-.41-7.68A61.74,61.74,0,0,1,186,139.37,54.33,54.33,0,0,1,168.53,142Zm17.23-28.23a26.26,26.26,0,0,0,8.92-1.56,23.48,23.48,0,0,0,7.68-4.46l7.48-34.87q-4.58-5.19-13.29-5.19-18.06,0-23.87,26.78a39.08,39.08,0,0,0-1.24,8.92c0,3.88,1.1,6.58,3.32,8.1S180.64,113.74,185.76,113.74Z"/><path class="cls-1" d="M253.21,139.89,282.89,0h39L307.18,69.12l33.21-27.61h44.2L336.65,83l29.47,56.87H324.61L308,103.36l-9.76,8.1-6,28.43Z"/><path class="cls-1" d="M407.43,142q-17.24,0-27.3-7.79t-10.06-24.8a64.91,64.91,0,0,1,.41-7.26c.28-2.49.69-5.12,1.25-7.89a80,80,0,0,1,12.45-29.16,61.48,61.48,0,0,1,21-19,54.42,54.42,0,0,1,26.36-6.64,42.56,42.56,0,0,1,13.7,2,26.93,26.93,0,0,1,9.13,4.87l1-4.77h39l-20.75,98.38H439.81l-.42-7.68a61.55,61.55,0,0,1-14.53,7.16A54.31,54.31,0,0,1,407.43,142Zm17.22-28.23a26.32,26.32,0,0,0,8.93-1.56,23.69,23.69,0,0,0,7.68-4.46l7.47-34.87q-4.58-5.19-13.28-5.19-18.06,0-23.87,26.78a39.16,39.16,0,0,0-1.25,8.92q0,5.82,3.32,8.1T424.65,113.74Z"/><path class="cls-1" d="M524.9,142Q511,142,504,136.78t-7-16.19a48.11,48.11,0,0,1,1.24-10.38L521.79,0h39L538.18,105.85a14.2,14.2,0,0,0-.31,1.66,11.79,11.79,0,0,0-.1,1.46c0,1.8.52,3,1.56,3.63a9.79,9.79,0,0,0,4.87.93,35.07,35.07,0,0,0,5.4-.41,31.2,31.2,0,0,0,5.19-1.25l-5.4,25.94a76.24,76.24,0,0,1-11.21,3.12A71.92,71.92,0,0,1,524.9,142Z"/><path class="cls-1" d="M644.24,142a136.63,136.63,0,0,1-25.12-2.18Q607.5,137.6,600,133.66l6.85-32.17a89.94,89.94,0,0,0,19.3,7.06,85.42,85.42,0,0,0,20.76,2.7q10.37,0,16-1.77t7.05-8a8.57,8.57,0,0,0,.21-2.07q0-5.19-6.43-7.68t-19.1-6.85q-14.11-5-21.38-12.14T616,54.17c0-1.52.07-3.08.21-4.67a35,35,0,0,1,.83-5.08q4.14-19.73,19.61-30T681.39,4.15A136.26,136.26,0,0,1,703.7,6a114.46,114.46,0,0,1,17.95,4.15l-6.84,32.38a82.55,82.55,0,0,0-17.44-5.61A86.15,86.15,0,0,0,681,35.28a75.93,75.93,0,0,0-15.87,1.46q-6.75,1.45-8.2,7.47a6.22,6.22,0,0,0-.21,1.87c0,2.63,1.73,4.63,5.19,6s9.2,3.32,17.23,5.81q18,5.4,25.11,13.28a27.12,27.12,0,0,1,7.06,18.68,39,39,0,0,1-.42,5.6c-.28,1.94-.62,4-1,6a50.14,50.14,0,0,1-9.65,21.17q-7.15,9.14-20.65,14.22T644.24,142Z"/><path class="cls-1" d="M745.73,139.89,767.94,35.28H730.37l6-29H850.55l-6,29.05H807L784.75,139.89Z"/></g></g></svg>